# Blender 4.0.2
# www.blender.org
mtllib candle.mtl
o Candel
v -0.005221 0.434264 -0.050199
v -0.005221 0.805833 -0.019213
v 0.001962 0.434264 -0.049491
v -0.004083 0.805833 -0.019101
v 0.008870 0.434264 -0.047396
v -0.002988 0.805833 -0.018768
v 0.015236 0.434264 -0.043993
v -0.001979 0.805833 -0.018229
v 0.020816 0.434264 -0.039414
v -0.001094 0.805833 -0.017503
v 0.025396 0.434264 -0.033834
v -0.000368 0.805833 -0.016619
v 0.028798 0.434264 -0.027468
v 0.000171 0.805833 -0.015610
v 0.030894 0.434264 -0.020560
v 0.000503 0.805833 -0.014515
v 0.031601 0.434264 -0.013376
v 0.000615 0.805833 -0.013376
v 0.030894 0.434264 -0.006192
v 0.000503 0.805833 -0.012237
v 0.028798 0.434264 0.000715
v 0.000171 0.805833 -0.011142
v 0.025396 0.434264 0.007082
v -0.000368 0.805833 -0.010133
v 0.020816 0.434264 0.012662
v -0.001094 0.805833 -0.009249
v 0.015236 0.434264 0.017241
v -0.001979 0.805833 -0.008523
v 0.008870 0.434264 0.020644
v -0.002988 0.805833 -0.007984
v 0.001962 0.434264 0.022739
v -0.004083 0.805833 -0.007652
v -0.005221 0.434264 0.023447
v -0.005221 0.805833 -0.007539
v -0.012405 0.434264 0.022739
v -0.006360 0.805833 -0.007652
v -0.019313 0.434264 0.020644
v -0.007455 0.805833 -0.007984
v -0.025679 0.434264 0.017241
v -0.008464 0.805833 -0.008523
v -0.031259 0.434264 0.012662
v -0.009349 0.805833 -0.009249
v -0.035839 0.434264 0.007082
v -0.010074 0.805833 -0.010133
v -0.039241 0.434264 0.000715
v -0.010614 0.805833 -0.011142
v -0.041337 0.434264 -0.006192
v -0.010946 0.805833 -0.012237
v -0.042044 0.434264 -0.013376
v -0.011058 0.805833 -0.013376
v -0.041337 0.434264 -0.020560
v -0.010946 0.805833 -0.014515
v -0.039241 0.434264 -0.027468
v -0.010614 0.805833 -0.015610
v -0.035839 0.434264 -0.033834
v -0.010074 0.805833 -0.016619
v -0.031259 0.434264 -0.039414
v -0.009349 0.805833 -0.017503
v -0.025679 0.434264 -0.043993
v -0.008464 0.805833 -0.018229
v -0.019313 0.434264 -0.047396
v -0.007455 0.805833 -0.018768
v -0.012405 0.434264 -0.049491
v -0.006360 0.805833 -0.019101
v 0.001962 0.769017 -0.049491
v -0.005221 0.769017 -0.050199
v 0.008870 0.769017 -0.047396
v 0.015236 0.769017 -0.043993
v 0.020816 0.769017 -0.039414
v 0.025396 0.769017 -0.033834
v 0.028798 0.769017 -0.027468
v 0.030894 0.769017 -0.020560
v 0.031601 0.769017 -0.013376
v 0.030894 0.769017 -0.006192
v 0.028798 0.769017 0.000715
v 0.025396 0.769017 0.007082
v 0.020816 0.769017 0.012662
v 0.015236 0.769017 0.017241
v 0.008870 0.769017 0.020644
v 0.001962 0.769017 0.022739
v -0.005221 0.769017 0.023447
v -0.012405 0.769017 0.022739
v -0.019313 0.769017 0.020644
v -0.025679 0.769017 0.017241
v -0.031259 0.769017 0.012662
v -0.035839 0.769017 0.007082
v -0.039241 0.769017 0.000715
v -0.041337 0.769017 -0.006192
v -0.042044 0.769017 -0.013376
v -0.041337 0.769017 -0.020560
v -0.039241 0.769017 -0.027468
v -0.035839 0.769017 -0.033834
v -0.031259 0.769017 -0.039414
v -0.025679 0.769017 -0.043993
v -0.019313 0.769017 -0.047396
v -0.012405 0.769017 -0.049491
v -0.002051 0.805833 -0.029317
v -0.005221 0.805833 -0.029630
v 0.000999 0.805833 -0.028392
v 0.003809 0.805833 -0.026890
v 0.006272 0.805833 -0.024869
v 0.008293 0.805833 -0.022406
v 0.009795 0.805833 -0.019596
v 0.010720 0.805833 -0.016547
v 0.011032 0.805833 -0.013376
v 0.010720 0.805833 -0.010205
v 0.009795 0.805833 -0.007156
v 0.008293 0.805833 -0.004346
v 0.006272 0.805833 -0.001883
v 0.003809 0.805833 0.000138
v 0.000999 0.805833 0.001640
v -0.002051 0.805833 0.002565
v -0.005221 0.805833 0.002878
v -0.008392 0.805833 0.002565
v -0.011441 0.805833 0.001640
v -0.014251 0.805833 0.000138
v -0.016714 0.805833 -0.001883
v -0.018736 0.805833 -0.004346
v -0.020238 0.805833 -0.007156
v -0.021163 0.805833 -0.010205
v -0.021475 0.805833 -0.013376
v -0.021163 0.805833 -0.016547
v -0.020238 0.805833 -0.019596
v -0.018736 0.805833 -0.022406
v -0.016714 0.805833 -0.024869
v -0.014251 0.805833 -0.026890
v -0.011441 0.805833 -0.028392
v -0.008392 0.805833 -0.029317
v -0.004083 0.840869 -0.019101
v -0.005221 0.840869 -0.019213
v -0.002988 0.840869 -0.018768
v -0.001979 0.840869 -0.018229
v -0.001094 0.840869 -0.017503
v -0.000368 0.840869 -0.016619
v 0.000171 0.840869 -0.015610
v 0.000503 0.840869 -0.014515
v 0.000615 0.840869 -0.013376
v 0.000503 0.840869 -0.012237
v 0.000171 0.840869 -0.011142
v -0.000368 0.840869 -0.010133
v -0.001094 0.840869 -0.009249
v -0.001979 0.840869 -0.008523
v -0.002988 0.840869 -0.007984
v -0.004083 0.840869 -0.007652
v -0.005221 0.840869 -0.007539
v -0.006360 0.840869 -0.007652
v -0.007455 0.840869 -0.007984
v -0.008464 0.840869 -0.008523
v -0.009349 0.840869 -0.009249
v -0.010074 0.840869 -0.010133
v -0.010614 0.840869 -0.011142
v -0.010946 0.840869 -0.012237
v -0.011058 0.840869 -0.013376
v -0.010946 0.840869 -0.014515
v -0.010614 0.840869 -0.015610
v -0.010074 0.840869 -0.016619
v -0.009349 0.840869 -0.017503
v -0.008464 0.840869 -0.018229
v -0.007455 0.840869 -0.018768
v -0.006360 0.840869 -0.019101
vn 0.0980 -0.0000 -0.9952
vn 0.2903 -0.0000 -0.9569
vn 0.4714 -0.0000 -0.8819
vn 0.6344 -0.0000 -0.7730
vn 0.7730 -0.0000 -0.6344
vn 0.8819 -0.0000 -0.4714
vn 0.9569 -0.0000 -0.2903
vn 0.9952 -0.0000 -0.0980
vn 0.9952 -0.0000 0.0980
vn 0.9569 -0.0000 0.2903
vn 0.8819 -0.0000 0.4714
vn 0.7730 -0.0000 0.6344
vn 0.6344 -0.0000 0.7730
vn 0.4714 -0.0000 0.8819
vn 0.2903 -0.0000 0.9569
vn 0.0980 -0.0000 0.9952
vn -0.0980 -0.0000 0.9952
vn -0.2903 -0.0000 0.9569
vn -0.4714 -0.0000 0.8819
vn -0.6344 -0.0000 0.7730
vn -0.7730 -0.0000 0.6344
vn -0.8819 -0.0000 0.4714
vn -0.9569 -0.0000 0.2903
vn -0.9952 -0.0000 0.0980
vn -0.9952 -0.0000 -0.0980
vn -0.9569 -0.0000 -0.2903
vn -0.8819 -0.0000 -0.4714
vn -0.7730 -0.0000 -0.6344
vn -0.6344 -0.0000 -0.7730
vn -0.4714 -0.0000 -0.8819
vn -0.2903 -0.0000 -0.9569
vn -0.0980 -0.0000 -0.9952
vn -0.0000 -1.0000 -0.0000
vn 0.0857 0.4859 -0.8698
vn 0.2537 0.4859 -0.8364
vn 0.4120 0.4859 -0.7708
vn 0.5545 0.4859 -0.6756
vn 0.6756 0.4859 -0.5545
vn 0.7708 0.4859 -0.4120
vn 0.8364 0.4859 -0.2537
vn 0.8698 0.4859 -0.0857
vn 0.8698 0.4859 0.0857
vn 0.8364 0.4859 0.2537
vn 0.7708 0.4859 0.4120
vn 0.6756 0.4859 0.5545
vn 0.5544 0.4859 0.6756
vn 0.4120 0.4859 0.7708
vn 0.2537 0.4859 0.8364
vn 0.0857 0.4859 0.8698
vn -0.0857 0.4859 0.8698
vn -0.2537 0.4859 0.8364
vn -0.4120 0.4859 0.7708
vn -0.5545 0.4859 0.6756
vn -0.6756 0.4859 0.5545
vn -0.7708 0.4859 0.4120
vn -0.8364 0.4859 0.2537
vn -0.8698 0.4859 0.0857
vn -0.8698 0.4859 -0.0857
vn -0.8364 0.4859 -0.2537
vn -0.7708 0.4859 -0.4120
vn -0.6756 0.4859 -0.5545
vn -0.5545 0.4859 -0.6756
vn -0.4120 0.4859 -0.7708
vn -0.2537 0.4859 -0.8364
vn -0.0857 0.4859 -0.8698
vn -0.0000 1.0000 -0.0000
vn -0.0001 1.0000 -0.0000
vn 0.0001 1.0000 -0.0000
vn 0.5545 0.4859 0.6756
vn -0.0004 1.0000 -0.0000
vn -0.0000 1.0000 -0.0001
vn -0.0006 1.0000 -0.0000
vn 0.0006 1.0000 -0.0000
vn -0.0006 1.0000 0.0001
vn -0.0000 1.0000 0.0001
vn 0.0002 1.0000 -0.0000
vn -0.0002 1.0000 -0.0000
vn -0.0006 1.0000 -0.0001
vt 1.000000 1.000000
vt 0.968750 0.500000
vt 1.000000 0.500000
vt 0.968750 1.000000
vt 0.937500 0.500000
vt 0.937500 1.000000
vt 0.906250 0.500000
vt 0.906250 1.000000
vt 0.875000 0.500000
vt 0.875000 1.000000
vt 0.843750 0.500000
vt 0.843750 1.000000
vt 0.812500 0.500000
vt 0.812500 1.000000
vt 0.781250 0.500000
vt 0.781250 1.000000
vt 0.750000 0.500000
vt 0.750000 1.000000
vt 0.718750 0.500000
vt 0.718750 1.000000
vt 0.687500 0.500000
vt 0.687500 1.000000
vt 0.656250 0.500000
vt 0.656250 1.000000
vt 0.625000 0.500000
vt 0.625000 1.000000
vt 0.593750 0.500000
vt 0.593750 1.000000
vt 0.562500 0.500000
vt 0.562500 1.000000
vt 0.531250 0.500000
vt 0.531250 1.000000
vt 0.500000 0.500000
vt 0.500000 1.000000
vt 0.468750 0.500000
vt 0.468750 1.000000
vt 0.437500 0.500000
vt 0.437500 1.000000
vt 0.406250 0.500000
vt 0.406250 1.000000
vt 0.375000 0.500000
vt 0.375000 1.000000
vt 0.343750 0.500000
vt 0.343750 1.000000
vt 0.312500 0.500000
vt 0.312500 1.000000
vt 0.281250 0.500000
vt 0.281250 1.000000
vt 0.250000 0.500000
vt 0.250000 1.000000
vt 0.218750 0.500000
vt 0.218750 1.000000
vt 0.187500 0.500000
vt 0.187500 1.000000
vt 0.156250 0.500000
vt 0.156250 1.000000
vt 0.125000 0.500000
vt 0.125000 1.000000
vt 0.093750 0.500000
vt 0.093750 1.000000
vt 0.062500 0.500000
vt 0.288041 0.250000
vt 0.287310 0.242578
vt 0.062500 1.000000
vt 0.031250 0.500000
vt 0.031250 1.000000
vt 0.000000 0.500000
vt 0.703178 0.485388
vt 0.985388 0.296822
vt 0.796822 0.014612
vt 0.250000 0.355936
vt 0.296822 0.485388
vt 0.250000 0.490000
vt 0.290540 0.347872
vt 0.270667 0.353901
vt 0.308855 0.338083
vt 0.341844 0.471731
vt 0.419706 0.419706
vt 0.383337 0.449553
vt 0.338083 0.308855
vt 0.324908 0.324908
vt 0.471731 0.341844
vt 0.449553 0.383337
vt 0.353901 0.270667
vt 0.347872 0.290540
vt 0.490000 0.250000
vt 0.485388 0.296822
vt 0.353901 0.229333
vt 0.355936 0.250000
vt 0.347872 0.209460
vt 0.485388 0.203178
vt 0.338083 0.191145
vt 0.471731 0.158156
vt 0.324908 0.175092
vt 0.449553 0.116663
vt 0.308855 0.161917
vt 0.419706 0.080294
vt 0.290540 0.152128
vt 0.383337 0.050447
vt 0.270667 0.146099
vt 0.341844 0.028269
vt 0.250000 0.010000
vt 0.296822 0.014612
vt 0.229333 0.146099
vt 0.250000 0.144064
vt 0.209460 0.152128
vt 0.203178 0.014612
vt 0.191145 0.161917
vt 0.158156 0.028269
vt 0.175092 0.175092
vt 0.116663 0.050447
vt 0.161917 0.191145
vt 0.080294 0.080294
vt 0.028269 0.158156
vt 0.050447 0.116663
vt 0.146099 0.229333
vt 0.152128 0.209460
vt 0.144064 0.250000
vt 0.014612 0.203178
vt 0.014612 0.296822
vt 0.010000 0.250000
vt 0.152128 0.290540
vt 0.146099 0.270667
vt 0.161917 0.308855
vt 0.028269 0.341844
vt 0.175092 0.324908
vt 0.050447 0.383337
vt 0.191145 0.338083
vt 0.080294 0.419706
vt 0.158156 0.471731
vt 0.116663 0.449553
vt 0.229333 0.353901
vt 0.209460 0.347872
vt 0.203178 0.485388
vt 0.250000 0.288041
vt 0.264558 0.285146
vt 0.257422 0.287310
vt 0.271135 0.281630
vt 0.281630 0.271135
vt 0.276899 0.276899
vt 0.285146 0.264558
vt 0.287310 0.257422
vt 0.285146 0.235442
vt 0.281630 0.228865
vt 0.276899 0.223101
vt 0.271135 0.218370
vt 0.257422 0.212690
vt 0.264558 0.214854
vt 0.250000 0.211959
vt 0.242579 0.212690
vt 0.228865 0.218370
vt 0.235442 0.214854
vt 0.223101 0.223101
vt 0.218370 0.228865
vt 0.212690 0.242578
vt 0.214854 0.235442
vt 0.211959 0.250000
vt 0.212690 0.257421
vt 0.214854 0.264558
vt 0.223101 0.276899
vt 0.218370 0.271135
vt 0.235442 0.285146
vt 0.228865 0.281630
vt 0.242578 0.287310
vt 0.000000 1.000000
vt 0.750000 0.490000
vt 0.796822 0.485388
vt 0.841844 0.471731
vt 0.883337 0.449553
vt 0.919706 0.419706
vt 0.949553 0.383337
vt 0.971731 0.341844
vt 0.990000 0.250000
vt 0.985388 0.203178
vt 0.971731 0.158156
vt 0.949553 0.116663
vt 0.919706 0.080294
vt 0.883337 0.050447
vt 0.841844 0.028269
vt 0.750000 0.010000
vt 0.703178 0.014612
vt 0.658156 0.028269
vt 0.616663 0.050447
vt 0.580294 0.080294
vt 0.550447 0.116663
vt 0.528269 0.158156
vt 0.514612 0.203178
vt 0.510000 0.250000
vt 0.514612 0.296822
vt 0.528269 0.341844
vt 0.550447 0.383337
vt 0.580294 0.419706
vt 0.616663 0.449553
vt 0.658156 0.471731
s 0
usemtl Material.002
f 66/1/1 3/2/1 1/3/1
f 65/4/2 5/5/2 3/2/2
f 67/6/3 7/7/3 5/5/3
f 68/8/4 9/9/4 7/7/4
f 69/10/5 11/11/5 9/9/5
f 70/12/6 13/13/6 11/11/6
f 71/14/7 15/15/7 13/13/7
f 72/16/8 17/17/8 15/15/8
f 73/18/9 19/19/9 17/17/9
f 74/20/10 21/21/10 19/19/10
f 75/22/11 23/23/11 21/21/11
f 76/24/12 25/25/12 23/23/12
f 77/26/13 27/27/13 25/25/13
f 78/28/14 29/29/14 27/27/14
f 79/30/15 31/31/15 29/29/15
f 80/32/16 33/33/16 31/31/16
f 81/34/17 35/35/17 33/33/17
f 82/36/18 37/37/18 35/35/18
f 83/38/19 39/39/19 37/37/19
f 84/40/20 41/41/20 39/39/20
f 85/42/21 43/43/21 41/41/21
f 86/44/22 45/45/22 43/43/22
f 87/46/23 47/47/23 45/45/23
f 88/48/24 49/49/24 47/47/24
f 89/50/25 51/51/25 49/49/25
f 90/52/26 53/53/26 51/51/26
f 91/54/27 55/55/27 53/53/27
f 92/56/28 57/57/28 55/55/28
f 93/58/29 59/59/29 57/57/29
f 94/60/30 61/61/30 59/59/30
f 18/62/9 138/63/9 20/63/9
f 95/64/31 63/65/31 61/61/31
f 96/66/32 1/67/32 63/65/32
f 63/68/33 15/69/33 31/70/33
f 98/71/34 65/72/34 66/73/34
f 99/74/35 65/72/35 97/75/35
f 100/76/36 67/77/36 99/74/36
f 100/76/37 69/78/37 68/79/37
f 102/80/38 69/78/38 101/81/38
f 102/80/39 71/82/39 70/83/39
f 104/84/40 71/82/40 103/85/40
f 104/84/41 73/86/41 72/87/41
f 106/88/42 73/86/42 105/89/42
f 107/90/43 74/91/43 106/88/43
f 108/92/44 75/93/44 107/90/44
f 109/94/45 76/95/45 108/92/45
f 110/96/46 77/97/46 109/94/46
f 111/98/47 78/99/47 110/96/47
f 112/100/48 79/101/48 111/98/48
f 112/100/49 81/102/49 80/103/49
f 114/104/50 81/102/50 113/105/50
f 115/106/51 82/107/51 114/104/51
f 116/108/52 83/109/52 115/106/52
f 117/110/53 84/111/53 116/108/53
f 118/112/54 85/113/54 117/110/54
f 118/112/55 87/114/55 86/115/55
f 120/116/56 87/114/56 119/117/56
f 121/118/57 88/119/57 120/116/57
f 121/118/58 90/120/58 89/121/58
f 123/122/59 90/120/59 122/123/59
f 124/124/60 91/125/60 123/122/60
f 125/126/61 92/127/61 124/124/61
f 126/128/62 93/129/62 125/126/62
f 126/128/63 95/130/63 94/131/63
f 128/132/64 95/130/64 127/133/64
f 98/71/65 96/134/65 128/132/65
f 2/135/66 97/75/66 98/71/66
f 6/136/67 97/75/67 4/137/67
f 6/136/66 100/76/66 99/74/66
f 8/138/66 101/81/66 100/76/66
f 12/139/66 101/81/66 10/140/66
f 14/141/68 102/80/68 12/139/68
f 14/141/66 104/84/66 103/85/66
f 18/62/66 104/84/66 16/142/66
f 20/63/66 105/89/66 18/62/66
f 22/143/66 106/88/66 20/63/66
f 24/144/68 107/90/68 22/143/68
f 26/145/66 108/92/66 24/144/66
f 28/146/66 109/94/66 26/145/66
f 28/146/66 111/98/66 110/96/66
f 32/147/66 111/98/66 30/148/66
f 34/149/66 112/100/66 32/147/66
f 36/150/66 113/105/66 34/149/66
f 36/150/66 115/106/66 114/104/66
f 40/151/66 115/106/66 38/152/66
f 42/153/66 116/108/66 40/151/66
f 44/154/66 117/110/66 42/153/66
f 44/154/66 119/117/66 118/112/66
f 48/155/67 119/117/67 46/156/67
f 50/157/66 120/116/66 48/155/66
f 52/158/66 121/118/66 50/157/66
f 54/159/66 122/123/66 52/158/66
f 54/159/66 124/124/66 123/122/66
f 58/160/66 124/124/66 56/161/66
f 58/160/66 126/128/66 125/126/66
f 62/162/66 126/128/66 60/163/66
f 64/164/66 127/133/66 62/162/66
f 64/164/66 98/71/66 128/132/66
f 147/152/66 139/143/66 131/136/66
f 46/156/23 152/155/23 48/155/23
f 20/63/10 139/143/10 22/143/10
f 48/155/24 153/157/24 50/157/24
f 24/144/11 139/143/11 140/144/11
f 50/157/25 154/158/25 52/158/25
f 24/144/12 141/145/12 26/145/12
f 52/158/26 155/159/26 54/159/26
f 26/145/13 142/146/13 28/146/13
f 54/159/27 156/161/27 56/161/27
f 28/146/14 143/148/14 30/148/14
f 2/135/1 129/137/1 4/137/1
f 56/161/28 157/160/28 58/160/28
f 30/148/15 144/147/15 32/147/15
f 4/137/2 131/136/2 6/136/2
f 58/160/29 158/163/29 60/163/29
f 32/147/16 145/149/16 34/149/16
f 6/136/3 132/138/3 8/138/3
f 60/163/30 159/162/30 62/162/30
f 34/149/17 146/150/17 36/150/17
f 8/138/4 133/140/4 10/140/4
f 62/162/31 160/164/31 64/164/31
f 36/150/18 147/152/18 38/152/18
f 10/140/5 134/139/5 12/139/5
f 64/164/32 130/135/32 2/135/32
f 38/152/19 148/151/19 40/151/19
f 12/139/6 135/141/6 14/141/6
f 40/151/20 149/153/20 42/153/20
f 14/141/7 136/142/7 16/142/7
f 42/153/21 150/154/21 44/154/21
f 16/142/8 137/62/8 18/62/8
f 46/156/22 150/154/22 151/156/22
f 66/1/1 65/4/1 3/2/1
f 65/4/2 67/6/2 5/5/2
f 67/6/3 68/8/3 7/7/3
f 68/8/4 69/10/4 9/9/4
f 69/10/5 70/12/5 11/11/5
f 70/12/6 71/14/6 13/13/6
f 71/14/7 72/16/7 15/15/7
f 72/16/8 73/18/8 17/17/8
f 73/18/9 74/20/9 19/19/9
f 74/20/10 75/22/10 21/21/10
f 75/22/11 76/24/11 23/23/11
f 76/24/12 77/26/12 25/25/12
f 77/26/13 78/28/13 27/27/13
f 78/28/14 79/30/14 29/29/14
f 79/30/15 80/32/15 31/31/15
f 80/32/16 81/34/16 33/33/16
f 81/34/17 82/36/17 35/35/17
f 82/36/18 83/38/18 37/37/18
f 83/38/19 84/40/19 39/39/19
f 84/40/20 85/42/20 41/41/20
f 85/42/21 86/44/21 43/43/21
f 86/44/22 87/46/22 45/45/22
f 87/46/23 88/48/23 47/47/23
f 88/48/24 89/50/24 49/49/24
f 89/50/25 90/52/25 51/51/25
f 90/52/26 91/54/26 53/53/26
f 91/54/27 92/56/27 55/55/27
f 92/56/28 93/58/28 57/57/28
f 93/58/29 94/60/29 59/59/29
f 94/60/30 95/64/30 61/61/30
f 18/62/9 137/62/9 138/63/9
f 95/64/31 96/66/31 63/65/31
f 96/66/32 66/165/32 1/67/32
f 63/68/33 1/166/33 3/167/33
f 3/167/33 5/168/33 7/169/33
f 7/169/33 9/170/33 15/69/33
f 9/170/33 11/171/33 15/69/33
f 11/171/33 13/172/33 15/69/33
f 15/69/33 17/173/33 19/174/33
f 19/174/33 21/175/33 23/176/33
f 23/176/33 25/177/33 27/178/33
f 27/178/33 29/179/33 31/70/33
f 31/70/33 33/180/33 35/181/33
f 35/181/33 37/182/33 39/183/33
f 39/183/33 41/184/33 43/185/33
f 43/185/33 45/186/33 39/183/33
f 45/186/33 47/187/33 39/183/33
f 47/187/33 49/188/33 51/189/33
f 51/189/33 53/190/33 55/191/33
f 55/191/33 57/192/33 63/68/33
f 57/192/33 59/193/33 63/68/33
f 59/193/33 61/194/33 63/68/33
f 63/68/33 3/167/33 15/69/33
f 3/167/33 7/169/33 15/69/33
f 15/69/33 19/174/33 31/70/33
f 19/174/33 23/176/33 31/70/33
f 23/176/33 27/178/33 31/70/33
f 31/70/33 35/181/33 47/187/33
f 35/181/33 39/183/33 47/187/33
f 47/187/33 51/189/33 55/191/33
f 47/187/33 55/191/33 31/70/33
f 55/191/33 63/68/33 31/70/33
f 98/71/34 97/75/34 65/72/34
f 99/74/35 67/77/35 65/72/35
f 100/76/36 68/79/36 67/77/36
f 100/76/37 101/81/37 69/78/37
f 102/80/38 70/83/38 69/78/38
f 102/80/39 103/85/39 71/82/39
f 104/84/40 72/87/40 71/82/40
f 104/84/41 105/89/41 73/86/41
f 106/88/42 74/91/42 73/86/42
f 107/90/43 75/93/43 74/91/43
f 108/92/44 76/95/44 75/93/44
f 109/94/45 77/97/45 76/95/45
f 110/96/69 78/99/69 77/97/69
f 111/98/47 79/101/47 78/99/47
f 112/100/48 80/103/48 79/101/48
f 112/100/49 113/105/49 81/102/49
f 114/104/50 82/107/50 81/102/50
f 115/106/51 83/109/51 82/107/51
f 116/108/52 84/111/52 83/109/52
f 117/110/53 85/113/53 84/111/53
f 118/112/54 86/115/54 85/113/54
f 118/112/55 119/117/55 87/114/55
f 120/116/56 88/119/56 87/114/56
f 121/118/57 89/121/57 88/119/57
f 121/118/58 122/123/58 90/120/58
f 123/122/59 91/125/59 90/120/59
f 124/124/60 92/127/60 91/125/60
f 125/126/61 93/129/61 92/127/61
f 126/128/62 94/131/62 93/129/62
f 126/128/63 127/133/63 95/130/63
f 128/132/64 96/134/64 95/130/64
f 98/71/65 66/73/65 96/134/65
f 2/135/68 4/137/68 97/75/68
f 6/136/66 99/74/66 97/75/66
f 6/136/66 8/138/66 100/76/66
f 8/138/66 10/140/66 101/81/66
f 12/139/66 102/80/66 101/81/66
f 14/141/66 103/85/66 102/80/66
f 14/141/66 16/142/66 104/84/66
f 18/62/66 105/89/66 104/84/66
f 20/63/66 106/88/66 105/89/66
f 22/143/66 107/90/66 106/88/66
f 24/144/66 108/92/66 107/90/66
f 26/145/66 109/94/66 108/92/66
f 28/146/66 110/96/66 109/94/66
f 28/146/66 30/148/66 111/98/66
f 32/147/66 112/100/66 111/98/66
f 34/149/66 113/105/66 112/100/66
f 36/150/66 114/104/66 113/105/66
f 36/150/66 38/152/66 115/106/66
f 40/151/66 116/108/66 115/106/66
f 42/153/66 117/110/66 116/108/66
f 44/154/66 118/112/66 117/110/66
f 44/154/66 46/156/66 119/117/66
f 48/155/66 120/116/66 119/117/66
f 50/157/66 121/118/66 120/116/66
f 52/158/66 122/123/66 121/118/66
f 54/159/66 123/122/66 122/123/66
f 54/159/68 56/161/68 124/124/68
f 58/160/66 125/126/66 124/124/66
f 58/160/66 60/163/66 126/128/66
f 62/162/66 127/133/66 126/128/66
f 64/164/66 128/132/66 127/133/66
f 64/164/66 2/135/66 98/71/66
f 131/136/66 129/137/66 159/162/66
f 129/137/66 130/135/66 159/162/66
f 130/135/66 160/164/66 159/162/66
f 159/162/66 158/163/66 157/160/66
f 157/160/70 156/161/70 159/162/70
f 156/161/71 155/159/71 159/162/71
f 155/159/72 154/158/72 153/157/72
f 153/157/73 152/155/73 151/156/73
f 151/156/74 150/154/74 149/153/74
f 149/153/75 148/151/75 151/156/75
f 148/151/76 147/152/76 151/156/76
f 147/152/66 146/150/66 145/149/66
f 145/149/77 144/147/77 143/148/77
f 143/148/66 142/146/66 141/145/66
f 141/145/78 140/144/78 139/143/78
f 139/143/66 138/63/66 137/62/66
f 137/62/73 136/142/73 135/141/73
f 135/141/74 134/139/74 133/140/74
f 133/140/66 132/138/66 131/136/66
f 155/159/66 153/157/66 147/152/66
f 153/157/66 151/156/66 147/152/66
f 147/152/66 145/149/66 143/148/66
f 143/148/66 141/145/66 147/152/66
f 141/145/66 139/143/66 147/152/66
f 139/143/66 137/62/66 131/136/66
f 137/62/66 135/141/66 131/136/66
f 135/141/66 133/140/66 131/136/66
f 131/136/66 159/162/66 147/152/66
f 159/162/66 155/159/66 147/152/66
f 46/156/23 151/156/23 152/155/23
f 20/63/10 138/63/10 139/143/10
f 48/155/24 152/155/24 153/157/24
f 24/144/11 22/143/11 139/143/11
f 50/157/25 153/157/25 154/158/25
f 24/144/12 140/144/12 141/145/12
f 52/158/26 154/158/26 155/159/26
f 26/145/13 141/145/13 142/146/13
f 54/159/27 155/159/27 156/161/27
f 28/146/14 142/146/14 143/148/14
f 2/135/1 130/135/1 129/137/1
f 56/161/28 156/161/28 157/160/28
f 30/148/15 143/148/15 144/147/15
f 4/137/2 129/137/2 131/136/2
f 58/160/29 157/160/29 158/163/29
f 32/147/16 144/147/16 145/149/16
f 6/136/3 131/136/3 132/138/3
f 60/163/30 158/163/30 159/162/30
f 34/149/17 145/149/17 146/150/17
f 8/138/4 132/138/4 133/140/4
f 62/162/31 159/162/31 160/164/31
f 36/150/18 146/150/18 147/152/18
f 10/140/5 133/140/5 134/139/5
f 64/164/32 160/164/32 130/135/32
f 38/152/19 147/152/19 148/151/19
f 12/139/6 134/139/6 135/141/6
f 40/151/20 148/151/20 149/153/20
f 14/141/7 135/141/7 136/142/7
f 42/153/21 149/153/21 150/154/21
f 16/142/8 136/142/8 137/62/8
f 46/156/22 44/154/22 150/154/22
