# Blender 4.0.2
# www.blender.org
mtllib Candle.mtl
o Candel
v -0.041365 0.434264 -0.006335
v -0.003607 0.805833 -0.007767
v -0.042044 0.434264 -0.013522
v -0.004732 0.805833 -0.007560
v -0.041308 0.434264 -0.020703
v -0.005876 0.805833 -0.007576
v -0.039185 0.434264 -0.027602
v -0.006995 0.805833 -0.007815
v -0.035757 0.434264 -0.033955
v -0.008046 0.805833 -0.008268
v -0.031156 0.434264 -0.039516
v -0.008988 0.805833 -0.008917
v -0.025558 0.434264 -0.044074
v -0.009785 0.805833 -0.009738
v -0.019178 0.434264 -0.047451
v -0.010407 0.805833 -0.010698
v -0.012262 0.434264 -0.049519
v -0.010830 0.805833 -0.011761
v -0.005076 0.434264 -0.050199
v -0.011038 0.805833 -0.012886
v 0.002105 0.434264 -0.049463
v -0.011021 0.805833 -0.014031
v 0.009004 0.434264 -0.047340
v -0.010782 0.805833 -0.015149
v 0.015357 0.434264 -0.043912
v -0.010329 0.805833 -0.016200
v 0.020919 0.434264 -0.039311
v -0.009680 0.805833 -0.017142
v 0.025476 0.434264 -0.033713
v -0.008860 0.805833 -0.017940
v 0.028854 0.434264 -0.027333
v -0.007900 0.805833 -0.018562
v 0.030922 0.434264 -0.020417
v -0.006836 0.805833 -0.018985
v 0.031601 0.434264 -0.013231
v -0.005711 0.805833 -0.019192
v 0.030865 0.434264 -0.006050
v -0.004567 0.805833 -0.019176
v 0.028742 0.434264 0.000850
v -0.003448 0.805833 -0.018937
v 0.025315 0.434264 0.007202
v -0.002397 0.805833 -0.018484
v 0.020713 0.434264 0.012764
v -0.001455 0.805833 -0.017835
v 0.015115 0.434264 0.017322
v -0.000658 0.805833 -0.017014
v 0.008735 0.434264 0.020699
v -0.000035 0.805833 -0.016054
v 0.001820 0.434264 0.022767
v 0.000387 0.805833 -0.014991
v -0.005367 0.434264 0.023446
v 0.000595 0.805833 -0.013866
v -0.012548 0.434264 0.022711
v 0.000578 0.805833 -0.012722
v -0.019447 0.434264 0.020588
v 0.000339 0.805833 -0.011603
v -0.025800 0.434264 0.017160
v -0.000114 0.805833 -0.010552
v -0.031362 0.434264 0.012559
v -0.000763 0.805833 -0.009610
v -0.035919 0.434264 0.006960
v -0.001583 0.805833 -0.008812
v -0.039297 0.434264 0.000581
v -0.002543 0.805833 -0.008190
v -0.008178 0.769017 0.023328
v -0.000960 0.769017 0.023199
v -0.015281 0.769017 0.022046
v -0.021999 0.769017 0.019403
v -0.028071 0.769017 0.015500
v -0.033265 0.769017 0.010487
v -0.037382 0.769017 0.004558
v -0.040263 0.769017 -0.002061
v -0.041797 0.769017 -0.009115
v -0.041925 0.769017 -0.016332
v -0.040643 0.769017 -0.023436
v -0.038000 0.769017 -0.030153
v -0.034097 0.769017 -0.036226
v -0.029085 0.769017 -0.041420
v -0.023155 0.769017 -0.045537
v -0.016536 0.769017 -0.048417
v -0.009483 0.769017 -0.049952
v -0.002265 0.769017 -0.050080
v 0.004838 0.769017 -0.048798
v 0.011556 0.769017 -0.046155
v 0.017628 0.769017 -0.042252
v 0.022822 0.769017 -0.037239
v 0.026939 0.769017 -0.031310
v 0.029820 0.769017 -0.024691
v 0.031354 0.769017 -0.017637
v 0.031483 0.769017 -0.010420
v 0.030201 0.769017 -0.003316
v 0.027557 0.769017 0.003401
v 0.023654 0.769017 0.009474
v 0.018642 0.769017 0.014668
v 0.012712 0.769017 0.018785
v 0.006093 0.769017 0.021665
v -0.003858 0.805833 0.002820
v -0.000724 0.805833 0.002243
v -0.007044 0.805833 0.002775
v -0.010160 0.805833 0.002109
v -0.013086 0.805833 0.000848
v -0.015710 0.805833 -0.000959
v -0.017931 0.805833 -0.003244
v -0.019663 0.805833 -0.005918
v -0.020841 0.805833 -0.008879
v -0.021418 0.805833 -0.012013
v -0.021373 0.805833 -0.015199
v -0.020707 0.805833 -0.018314
v -0.019446 0.805833 -0.021241
v -0.017638 0.805833 -0.023864
v -0.015353 0.805833 -0.026085
v -0.012679 0.805833 -0.027818
v -0.009718 0.805833 -0.028995
v -0.006585 0.805833 -0.029572
v -0.003399 0.805833 -0.029527
v -0.000283 0.805833 -0.028861
v 0.002643 0.805833 -0.027600
v 0.005267 0.805833 -0.025793
v 0.007488 0.805833 -0.023508
v 0.009220 0.805833 -0.020834
v 0.010398 0.805833 -0.017873
v 0.010975 0.805833 -0.014740
v 0.010930 0.805833 -0.011554
v 0.010264 0.805833 -0.008438
v 0.009003 0.805833 -0.005512
v 0.007195 0.805833 -0.002888
v 0.004910 0.805833 -0.000667
v 0.002236 0.805833 0.001066
v -0.003832 0.840869 -0.007707
v -0.002753 0.840869 -0.008087
v -0.004964 0.840869 -0.007545
v -0.006107 0.840869 -0.007607
v -0.007215 0.840869 -0.007891
v -0.008247 0.840869 -0.008385
v -0.009163 0.840869 -0.009071
v -0.009927 0.840869 -0.009923
v -0.010510 0.840869 -0.010907
v -0.010890 0.840869 -0.011986
v -0.011052 0.840869 -0.013119
v -0.010991 0.840869 -0.014262
v -0.010707 0.840869 -0.015370
v -0.010212 0.840869 -0.016402
v -0.009526 0.840869 -0.017317
v -0.008675 0.840869 -0.018082
v -0.007690 0.840869 -0.018665
v -0.006611 0.840869 -0.019045
v -0.005478 0.840869 -0.019207
v -0.004336 0.840869 -0.019145
v -0.003227 0.840869 -0.018862
v -0.002196 0.840869 -0.018367
v -0.001280 0.840869 -0.017681
v -0.000516 0.840869 -0.016829
v 0.000067 0.840869 -0.015845
v 0.000447 0.840869 -0.014766
v 0.000610 0.840869 -0.013633
v 0.000548 0.840869 -0.012491
v 0.000264 0.840869 -0.011382
v -0.000230 0.840869 -0.010350
v -0.000917 0.840869 -0.009435
v -0.001768 0.840869 -0.008671
vn -0.6664 -0.0000 0.7456
vn -0.7991 -0.0000 0.6012
vn -0.9010 -0.0000 0.4338
vn -0.9683 -0.0000 0.2497
vn -0.9984 -0.0000 0.0560
vn -0.9902 -0.0000 -0.1399
vn -0.9439 -0.0000 -0.3304
vn -0.8613 -0.0000 -0.5081
vn -0.7456 -0.0000 -0.6664
vn -0.6012 -0.0000 -0.7991
vn -0.4338 -0.0000 -0.9010
vn -0.2497 -0.0000 -0.9683
vn -0.0560 -0.0000 -0.9984
vn 0.1399 -0.0000 -0.9902
vn 0.3304 -0.0000 -0.9439
vn 0.5081 -0.0000 -0.8613
vn 0.6664 -0.0000 -0.7456
vn 0.7991 -0.0000 -0.6012
vn 0.9010 -0.0000 -0.4338
vn 0.9683 -0.0000 -0.2497
vn 0.9984 -0.0000 -0.0560
vn 0.9902 -0.0000 0.1399
vn 0.9439 -0.0000 0.3304
vn 0.8613 -0.0000 0.5081
vn 0.7456 -0.0000 0.6664
vn 0.6013 -0.0000 0.7991
vn 0.4338 -0.0000 0.9010
vn 0.2497 -0.0000 0.9683
vn 0.0560 -0.0000 0.9984
vn -0.1399 -0.0000 0.9902
vn -0.9663 -0.0000 0.2574
vn -0.3304 -0.0000 0.9439
vn -0.5081 -0.0000 0.8613
vn -0.0000 -1.0000 -0.0000
vn 0.0594 0.4870 0.8714
vn -0.1117 0.4870 0.8662
vn -0.2786 0.4870 0.8278
vn -0.4347 0.4870 0.7575
vn -0.5741 0.4870 0.6582
vn -0.6915 0.4870 0.5335
vn -0.7823 0.4870 0.3884
vn -0.8430 0.4870 0.2283
vn -0.8714 0.4870 0.0594
vn -0.8662 0.4870 -0.1117
vn -0.8278 0.4870 -0.2786
vn -0.7575 0.4870 -0.4347
vn -0.6582 0.4870 -0.5741
vn -0.5335 0.4870 -0.6915
vn -0.3884 0.4870 -0.7823
vn -0.2283 0.4870 -0.8430
vn -0.0594 0.4870 -0.8714
vn 0.1117 0.4870 -0.8662
vn 0.2786 0.4870 -0.8278
vn 0.4347 0.4870 -0.7575
vn 0.5741 0.4870 -0.6582
vn 0.6915 0.4870 -0.5335
vn 0.7823 0.4870 -0.3883
vn 0.8430 0.4870 -0.2283
vn 0.8714 0.4870 -0.0594
vn 0.8662 0.4870 0.1117
vn 0.8278 0.4870 0.2786
vn 0.7575 0.4870 0.4347
vn 0.6582 0.4870 0.5741
vn 0.5335 0.4870 0.6915
vn 0.3884 0.4870 0.7823
vn 0.2283 0.4870 0.8430
vn -0.0000 1.0000 -0.0000
vn 0.7942 -0.0000 -0.6076
vn -0.9980 -0.0000 0.0640
vn 0.8975 -0.0000 -0.4410
vn -0.9913 -0.0000 -0.1319
vn 0.9663 -0.0000 -0.2574
vn -0.9465 -0.0000 -0.3228
vn 0.9980 -0.0000 -0.0640
vn -0.8653 -0.0000 -0.5012
vn 0.9913 -0.0000 0.1319
vn -0.7509 -0.0000 -0.6604
vn 0.2574 -0.0000 0.9663
vn 0.9465 -0.0000 0.3228
vn -0.6076 -0.0000 -0.7942
vn 0.0640 -0.0000 0.9980
vn 0.8653 -0.0000 0.5012
vn -0.4410 -0.0000 -0.8975
vn -0.1319 -0.0000 0.9913
vn 0.7509 -0.0000 0.6604
vn -0.2574 -0.0000 -0.9663
vn -0.3228 -0.0000 0.9465
vn 0.6076 -0.0000 0.7942
vn -0.0640 -0.0000 -0.9980
vn -0.5012 -0.0000 0.8653
vn 0.4410 -0.0000 0.8975
vn 0.1319 -0.0000 -0.9913
vn -0.6604 -0.0000 0.7509
vn 0.3228 -0.0000 -0.9465
vn -0.7942 -0.0000 0.6076
vn 0.5012 -0.0000 -0.8653
vn -0.8975 -0.0000 0.4410
vn 0.6604 -0.0000 -0.7509
vt 1.000000 0.500000
vt 1.000000 1.000000
vt 0.968750 1.000000
vt 0.968750 0.500000
vt 0.937500 1.000000
vt 0.937500 0.500000
vt 0.906250 1.000000
vt 0.906250 0.500000
vt 0.875000 1.000000
vt 0.875000 0.500000
vt 0.843750 1.000000
vt 0.843750 0.500000
vt 0.812500 1.000000
vt 0.812500 0.500000
vt 0.781250 1.000000
vt 0.781250 0.500000
vt 0.750000 1.000000
vt 0.750000 0.500000
vt 0.718750 1.000000
vt 0.718750 0.500000
vt 0.687500 1.000000
vt 0.687500 0.500000
vt 0.656250 1.000000
vt 0.656250 0.500000
vt 0.625000 1.000000
vt 0.625000 0.500000
vt 0.593750 1.000000
vt 0.593750 0.500000
vt 0.562500 1.000000
vt 0.562500 0.500000
vt 0.531250 1.000000
vt 0.531250 0.500000
vt 0.500000 1.000000
vt 0.500000 0.500000
vt 0.468750 1.000000
vt 0.468750 0.500000
vt 0.437500 1.000000
vt 0.437500 0.500000
vt 0.406250 1.000000
vt 0.406250 0.500000
vt 0.375000 1.000000
vt 0.375000 0.500000
vt 0.343750 1.000000
vt 0.343750 0.500000
vt 0.312500 1.000000
vt 0.312500 0.500000
vt 0.281250 1.000000
vt 0.281250 0.500000
vt 0.250000 1.000000
vt 0.250000 0.500000
vt 0.218750 1.000000
vt 0.218750 0.500000
vt 0.187500 1.000000
vt 0.187500 0.500000
vt 0.156250 1.000000
vt 0.156250 0.500000
vt 0.125000 1.000000
vt 0.125000 0.500000
vt 0.093750 1.000000
vt 0.093750 0.500000
vt 0.062500 1.000000
vt 0.062500 0.500000
vt 0.287310 0.242578
vt 0.288041 0.250000
vt 0.031250 1.000000
vt 0.031250 0.500000
vt 0.000000 1.000000
vt 0.000000 0.500000
vt 0.750000 0.490000
vt 0.796822 0.485388
vt 0.841844 0.471731
vt 0.883337 0.449553
vt 0.919706 0.419706
vt 0.949553 0.383337
vt 0.971731 0.341844
vt 0.985388 0.296822
vt 0.990000 0.250000
vt 0.985388 0.203178
vt 0.971731 0.158156
vt 0.949553 0.116663
vt 0.919706 0.080294
vt 0.883337 0.050447
vt 0.841844 0.028269
vt 0.796822 0.014612
vt 0.750000 0.010000
vt 0.703178 0.014612
vt 0.658156 0.028269
vt 0.616663 0.050447
vt 0.580294 0.080294
vt 0.550447 0.116663
vt 0.528269 0.158156
vt 0.514612 0.203178
vt 0.510000 0.250000
vt 0.514612 0.296822
vt 0.528269 0.341844
vt 0.550447 0.383337
vt 0.580294 0.419706
vt 0.616663 0.449553
vt 0.658156 0.471731
vt 0.703178 0.485388
vt 0.250000 0.355936
vt 0.270667 0.353901
vt 0.296822 0.485388
vt 0.250000 0.490000
vt 0.290540 0.347872
vt 0.341844 0.471731
vt 0.308855 0.338083
vt 0.383337 0.449553
vt 0.324908 0.324908
vt 0.419706 0.419706
vt 0.338083 0.308855
vt 0.449553 0.383337
vt 0.347872 0.290540
vt 0.471731 0.341844
vt 0.353901 0.270667
vt 0.485388 0.296822
vt 0.355936 0.250000
vt 0.490000 0.250000
vt 0.353901 0.229333
vt 0.485388 0.203178
vt 0.347872 0.209460
vt 0.471731 0.158156
vt 0.338083 0.191145
vt 0.449553 0.116663
vt 0.324908 0.175092
vt 0.419706 0.080294
vt 0.308855 0.161917
vt 0.383337 0.050447
vt 0.290540 0.152128
vt 0.341844 0.028269
vt 0.270667 0.146099
vt 0.296822 0.014612
vt 0.250000 0.144064
vt 0.250000 0.010000
vt 0.229333 0.146099
vt 0.203178 0.014612
vt 0.209460 0.152128
vt 0.158156 0.028269
vt 0.191145 0.161917
vt 0.116663 0.050447
vt 0.175092 0.175092
vt 0.080294 0.080294
vt 0.161917 0.191145
vt 0.050447 0.116663
vt 0.152128 0.209460
vt 0.028269 0.158156
vt 0.146099 0.229333
vt 0.014612 0.203178
vt 0.144064 0.250000
vt 0.010000 0.250000
vt 0.146099 0.270667
vt 0.014612 0.296822
vt 0.152128 0.290540
vt 0.028269 0.341844
vt 0.161917 0.308855
vt 0.050447 0.383337
vt 0.175092 0.324908
vt 0.080294 0.419706
vt 0.191145 0.338083
vt 0.116663 0.449553
vt 0.209460 0.347872
vt 0.158156 0.471731
vt 0.229333 0.353901
vt 0.203178 0.485388
vt 0.250000 0.288041
vt 0.257422 0.287310
vt 0.264558 0.285146
vt 0.271135 0.281630
vt 0.276899 0.276899
vt 0.281630 0.271135
vt 0.285146 0.264558
vt 0.287310 0.257422
vt 0.285146 0.235442
vt 0.281630 0.228865
vt 0.276899 0.223101
vt 0.271135 0.218370
vt 0.264558 0.214854
vt 0.257422 0.212690
vt 0.250000 0.211959
vt 0.242579 0.212690
vt 0.235442 0.214854
vt 0.228865 0.218370
vt 0.223101 0.223101
vt 0.218370 0.228865
vt 0.214854 0.235442
vt 0.212690 0.242578
vt 0.211959 0.250000
vt 0.212690 0.257421
vt 0.214854 0.264558
vt 0.218370 0.271135
vt 0.223101 0.276899
vt 0.228865 0.281630
vt 0.235442 0.285146
vt 0.242578 0.287310
s 0
usemtl Material.002
f 1/1/1 66/2/1 65/3/1 3/4/1
f 3/4/2 65/3/2 67/5/2 5/6/2
f 5/6/3 67/5/3 68/7/3 7/8/3
f 7/8/4 68/7/4 69/9/4 9/10/4
f 9/10/5 69/9/5 70/11/5 11/12/5
f 11/12/6 70/11/6 71/13/6 13/14/6
f 13/14/7 71/13/7 72/15/7 15/16/7
f 15/16/8 72/15/8 73/17/8 17/18/8
f 17/18/9 73/17/9 74/19/9 19/20/9
f 19/20/10 74/19/10 75/21/10 21/22/10
f 21/22/11 75/21/11 76/23/11 23/24/11
f 23/24/12 76/23/12 77/25/12 25/26/12
f 25/26/13 77/25/13 78/27/13 27/28/13
f 27/28/14 78/27/14 79/29/14 29/30/14
f 29/30/15 79/29/15 80/31/15 31/32/15
f 31/32/16 80/31/16 81/33/16 33/34/16
f 33/34/17 81/33/17 82/35/17 35/36/17
f 35/36/18 82/35/18 83/37/18 37/38/18
f 37/38/19 83/37/19 84/39/19 39/40/19
f 39/40/20 84/39/20 85/41/20 41/42/20
f 41/42/21 85/41/21 86/43/21 43/44/21
f 43/44/22 86/43/22 87/45/22 45/46/22
f 45/46/23 87/45/23 88/47/23 47/48/23
f 47/48/24 88/47/24 89/49/24 49/50/24
f 49/50/25 89/49/25 90/51/25 51/52/25
f 51/52/26 90/51/26 91/53/26 53/54/26
f 53/54/27 91/53/27 92/55/27 55/56/27
f 55/56/28 92/55/28 93/57/28 57/58/28
f 57/58/29 93/57/29 94/59/29 59/60/29
f 59/60/30 94/59/30 95/61/30 61/62/30
f 20/63/31 18/64/31 137/64/31 138/63/31
f 61/62/32 95/61/32 96/65/32 63/66/32
f 63/66/33 96/65/33 66/67/33 1/68/33
f 1/69/34 3/70/34 5/71/34 7/72/34 9/73/34 11/74/34 13/75/34 15/76/34 17/77/34 19/78/34 21/79/34 23/80/34 25/81/34 27/82/34 29/83/34 31/84/34 33/85/34 35/86/34 37/87/34 39/88/34 41/89/34 43/90/34 45/91/34 47/92/34 49/93/34 51/94/34 53/95/34 55/96/34 57/97/34 59/98/34 61/99/34 63/100/34
f 98/101/35 97/102/35 65/103/35 66/104/35
f 97/102/36 99/105/36 67/106/36 65/103/36
f 99/105/37 100/107/37 68/108/37 67/106/37
f 100/107/38 101/109/38 69/110/38 68/108/38
f 101/109/39 102/111/39 70/112/39 69/110/39
f 102/111/40 103/113/40 71/114/40 70/112/40
f 103/113/41 104/115/41 72/116/41 71/114/41
f 104/115/42 105/117/42 73/118/42 72/116/42
f 105/117/43 106/119/43 74/120/43 73/118/43
f 106/119/44 107/121/44 75/122/44 74/120/44
f 107/121/45 108/123/45 76/124/45 75/122/45
f 108/123/46 109/125/46 77/126/46 76/124/46
f 109/125/47 110/127/47 78/128/47 77/126/47
f 110/127/48 111/129/48 79/130/48 78/128/48
f 111/129/49 112/131/49 80/132/49 79/130/49
f 112/131/50 113/133/50 81/134/50 80/132/50
f 113/133/51 114/135/51 82/136/51 81/134/51
f 114/135/52 115/137/52 83/138/52 82/136/52
f 115/137/53 116/139/53 84/140/53 83/138/53
f 116/139/54 117/141/54 85/142/54 84/140/54
f 117/141/55 118/143/55 86/144/55 85/142/55
f 118/143/56 119/145/56 87/146/56 86/144/56
f 119/145/57 120/147/57 88/148/57 87/146/57
f 120/147/58 121/149/58 89/150/58 88/148/58
f 121/149/59 122/151/59 90/152/59 89/150/59
f 122/151/60 123/153/60 91/154/60 90/152/60
f 123/153/61 124/155/61 92/156/61 91/154/61
f 124/155/62 125/157/62 93/158/62 92/156/62
f 125/157/63 126/159/63 94/160/63 93/158/63
f 126/159/64 127/161/64 95/162/64 94/160/64
f 127/161/65 128/163/65 96/164/65 95/162/65
f 128/163/66 98/101/66 66/104/66 96/164/66
f 2/165/67 4/166/67 97/102/67 98/101/67
f 4/166/67 6/167/67 99/105/67 97/102/67
f 6/167/67 8/168/67 100/107/67 99/105/67
f 8/168/67 10/169/67 101/109/67 100/107/67
f 10/169/67 12/170/67 102/111/67 101/109/67
f 12/170/67 14/171/67 103/113/67 102/111/67
f 14/171/67 16/172/67 104/115/67 103/113/67
f 16/172/67 18/64/67 105/117/67 104/115/67
f 18/64/67 20/63/67 106/119/67 105/117/67
f 20/63/67 22/173/67 107/121/67 106/119/67
f 22/173/67 24/174/67 108/123/67 107/121/67
f 24/174/67 26/175/67 109/125/67 108/123/67
f 26/175/67 28/176/67 110/127/67 109/125/67
f 28/176/67 30/177/67 111/129/67 110/127/67
f 30/177/67 32/178/67 112/131/67 111/129/67
f 32/178/67 34/179/67 113/133/67 112/131/67
f 34/179/67 36/180/67 114/135/67 113/133/67
f 36/180/67 38/181/67 115/137/67 114/135/67
f 38/181/67 40/182/67 116/139/67 115/137/67
f 40/182/67 42/183/67 117/141/67 116/139/67
f 42/183/67 44/184/67 118/143/67 117/141/67
f 44/184/67 46/185/67 119/145/67 118/143/67
f 46/185/67 48/186/67 120/147/67 119/145/67
f 48/186/67 50/187/67 121/149/67 120/147/67
f 50/187/67 52/188/67 122/151/67 121/149/67
f 52/188/67 54/189/67 123/153/67 122/151/67
f 54/189/67 56/190/67 124/155/67 123/153/67
f 56/190/67 58/191/67 125/157/67 124/155/67
f 58/191/67 60/192/67 126/159/67 125/157/67
f 60/192/67 62/193/67 127/161/67 126/159/67
f 62/193/67 64/194/67 128/163/67 127/161/67
f 64/194/67 2/165/67 98/101/67 128/163/67
f 129/166/67 130/165/67 160/194/67 159/193/67 158/192/67 157/191/67 156/190/67 155/189/67 154/188/67 153/187/67 152/186/67 151/185/67 150/184/67 149/183/67 148/182/67 147/181/67 146/180/67 145/179/67 144/178/67 143/177/67 142/176/67 141/175/67 140/174/67 139/173/67 138/63/67 137/64/67 136/172/67 135/171/67 134/170/67 133/169/67 132/168/67 131/167/67
f 48/186/68 46/185/68 151/185/68 152/186/68
f 22/173/69 20/63/69 138/63/69 139/173/69
f 50/187/70 48/186/70 152/186/70 153/187/70
f 24/174/71 22/173/71 139/173/71 140/174/71
f 52/188/72 50/187/72 153/187/72 154/188/72
f 26/175/73 24/174/73 140/174/73 141/175/73
f 54/189/74 52/188/74 154/188/74 155/189/74
f 28/176/75 26/175/75 141/175/75 142/176/75
f 56/190/76 54/189/76 155/189/76 156/190/76
f 30/177/77 28/176/77 142/176/77 143/177/77
f 4/166/78 2/165/78 130/165/78 129/166/78
f 58/191/79 56/190/79 156/190/79 157/191/79
f 32/178/80 30/177/80 143/177/80 144/178/80
f 6/167/81 4/166/81 129/166/81 131/167/81
f 60/192/82 58/191/82 157/191/82 158/192/82
f 34/179/83 32/178/83 144/178/83 145/179/83
f 8/168/84 6/167/84 131/167/84 132/168/84
f 62/193/85 60/192/85 158/192/85 159/193/85
f 36/180/86 34/179/86 145/179/86 146/180/86
f 10/169/87 8/168/87 132/168/87 133/169/87
f 64/194/88 62/193/88 159/193/88 160/194/88
f 38/181/89 36/180/89 146/180/89 147/181/89
f 12/170/90 10/169/90 133/169/90 134/170/90
f 2/165/91 64/194/91 160/194/91 130/165/91
f 40/182/92 38/181/92 147/181/92 148/182/92
f 14/171/93 12/170/93 134/170/93 135/171/93
f 42/183/94 40/182/94 148/182/94 149/183/94
f 16/172/95 14/171/95 135/171/95 136/172/95
f 44/184/96 42/183/96 149/183/96 150/184/96
f 18/64/97 16/172/97 136/172/97 137/64/97
f 46/185/98 44/184/98 150/184/98 151/185/98
