# Blender 4.0.2
# www.blender.org
o Plane_0
v 0.976703 -0.000000 -0.913914
v 1.034548 -0.000000 -0.934596
v 0.914655 -0.000000 -1.087447
v 0.972499 -0.000000 -1.108130
vn -0.0000 1.0000 -0.0000
vt 0.144969 0.193018
vt 0.082957 0.193018
vt 0.082957 0.006982
vt 0.144969 0.006982
s 1
f 4/1/1 3/2/1 1/3/1
f 2/4/1 4/1/1 1/3/1
o Plane_1
v -1.238241 -0.000000 -1.657204
v -1.197875 -0.000000 -1.703511
v -1.377163 -0.000000 -1.778300
v -1.336798 -0.000000 -1.824608
vn -0.0000 1.0000 -0.0000
vt 1.000000 1.000000
vt 0.000000 1.000000
vt 0.000000 0.000000
vt 1.000000 0.000000
s 1
f 8/5/2 7/6/2 5/7/2
f 6/8/2 8/5/2 5/7/2
o Plane_2
v -1.520116 -0.000000 -0.874188
v -1.483597 -0.000000 -0.923585
v -1.668308 -0.000000 -0.983745
v -1.631789 -0.000000 -1.033143
vn -0.0000 1.0000 -0.0000
vt 0.220945 0.193018
vt 0.158932 0.193018
vt 0.158932 0.006982
vt 0.220945 0.006982
s 1
f 12/9/3 11/10/3 9/11/3
f 10/12/3 12/9/3 9/11/3
o Plane_3
v 2.011982 -0.000000 1.559222
v 1.953998 -0.000000 1.579512
v 2.072853 -0.000000 1.733172
v 2.014869 -0.000000 1.753462
vn -0.0000 1.0000 -0.0000
vt 0.296920 0.193018
vt 0.234908 0.193018
vt 0.234908 0.006982
vt 0.296920 0.006982
s 1
f 16/13/4 15/14/4 13/15/4
f 14/16/4 16/13/4 13/15/4
o Plane_4
v 0.418219 -0.000001 1.981295
v 0.378939 -0.000001 2.028527
v 0.559914 -0.000001 2.099135
v 0.520634 -0.000000 2.146367
vn -0.0000 1.0000 -0.0000
vt 0.372895 0.193018
vt 0.310883 0.193018
vt 0.310883 0.006982
vt 0.372895 0.006982
s 1
f 20/17/5 19/18/5 17/19/5
f 18/20/5 20/17/5 17/19/5
o Plane_5
v -0.353323 0.000000 1.483875
v -0.336415 0.000000 1.424817
v -0.530497 0.000000 1.433151
v -0.513589 0.000000 1.374093
vn -0.0000 1.0000 -0.0000
vt 0.068994 0.393018
vt 0.006982 0.393018
vt 0.006982 0.206982
vt 0.068994 0.206982
s 1
f 24/21/6 23/22/6 21/23/6
f 22/24/6 24/21/6 21/23/6
o Plane_6
v 0.590903 -0.000000 0.209173
v 0.610791 -0.000000 0.151051
v 0.416536 -0.000000 0.149509
v 0.436424 -0.000000 0.091387
vn -0.0000 1.0000 -0.0000
vt 0.144969 0.393018
vt 0.082957 0.393018
vt 0.082957 0.206982
vt 0.144969 0.206982
s 1
f 28/25/7 27/26/7 25/27/7
f 26/28/7 28/25/7 25/27/7
o Plane_7
v 2.187468 -0.000000 -0.260966
v 2.243030 -0.000000 -0.287169
v 2.108858 -0.000000 -0.427652
v 2.164420 -0.000000 -0.453855
vn -0.0000 1.0000 -0.0000
vt 0.220945 0.393018
vt 0.158932 0.393018
vt 0.158932 0.206982
vt 0.220945 0.206982
s 1
f 32/29/8 31/30/8 29/31/8
f 30/32/8 32/29/8 29/31/8
o Plane_8
v -1.219214 -0.000000 -0.402692
v -1.264652 -0.000000 -0.444033
v -1.343238 -0.000000 -0.266377
v -1.388677 -0.000000 -0.307718
vn -0.0000 1.0000 -0.0000
vt 0.296920 0.393018
vt 0.234908 0.393018
vt 0.234908 0.206982
vt 0.296920 0.206982
s 1
f 36/33/9 35/34/9 33/35/9
f 34/36/9 36/33/9 33/35/9
o Plane_9
v 1.626691 -0.000000 0.100273
v 1.674382 -0.000000 0.138994
v 1.742853 -0.000000 -0.042800
v 1.790544 -0.000000 -0.004080
vn -0.0000 1.0000 -0.0000
vt 0.372895 0.393018
vt 0.310883 0.393018
vt 0.310883 0.206982
vt 0.372895 0.206982
s 1
f 40/37/10 39/38/10 37/39/10
f 38/40/10 40/37/10 37/39/10
o Plane_10
v 2.186740 -0.000000 1.347942
v 2.208424 -0.000000 1.290465
v 2.014310 -0.000000 1.282891
v 2.035994 -0.000000 1.225414
vn -0.0000 1.0000 -0.0000
vt 0.448871 0.193018
vt 0.386859 0.193018
vt 0.386859 0.006982
vt 0.448871 0.006982
s 1
f 44/41/11 43/42/11 41/43/11
f 42/44/11 44/41/11 41/43/11
o Plane_11
v -0.352813 -0.000000 1.995788
v -0.302151 -0.000000 1.961045
v -0.457044 -0.000000 1.843802
v -0.406382 -0.000000 1.809058
vn -0.0000 1.0000 -0.0000
vt 0.448871 0.393018
vt 0.386859 0.393018
vt 0.386859 0.206982
vt 0.448871 0.206982
s 1
f 48/45/12 47/46/12 45/47/12
f 46/48/12 48/45/12 45/47/12
o Plane_12
v -0.629852 -0.000000 -1.685087
v -0.686053 -0.000000 -1.709892
v -0.704267 -0.000000 -1.516486
v -0.760467 -0.000000 -1.541291
vn -0.0000 1.0000 -0.0000
vt 0.524846 0.193018
vt 0.462834 0.193018
vt 0.462834 0.006982
vt 0.524846 0.006982
s 1
f 52/49/13 51/50/13 49/51/13
f 50/52/13 52/49/13 49/51/13
o Plane_13
v -0.668659 -0.000000 -0.716980
v -0.610240 -0.000000 -0.735980
v -0.725658 -0.000000 -0.892237
v -0.667239 -0.000000 -0.911237
vn -0.0000 1.0000 -0.0000
vt 0.524846 0.393018
vt 0.462834 0.393018
vt 0.462834 0.206982
vt 0.524846 0.206982
s 1
f 56/53/14 55/54/14 53/55/14
f 54/56/14 56/53/14 53/55/14
o Plane_14
v -1.665116 -0.000000 0.458118
v -1.612050 -0.000000 0.427169
v -1.757962 -0.000000 0.298922
v -1.704897 -0.000000 0.267973
vn -0.0000 1.0000 -0.0000
vt 0.068994 0.593018
vt 0.006982 0.593018
vt 0.006982 0.406982
vt 0.068994 0.406982
s 1
f 60/57/15 59/58/15 57/59/15
f 58/60/15 60/57/15 57/59/15
o Plane_15
v 0.759664 -0.000000 -1.504438
v 0.791948 -0.000000 -1.452174
v 0.916454 -0.000000 -1.601292
v 0.948739 -0.000000 -1.549028
vn -0.0000 1.0000 -0.0000
vt 0.144969 0.593018
vt 0.082957 0.593018
vt 0.082957 0.406982
vt 0.144969 0.406982
s 1
f 64/61/16 63/62/16 61/63/16
f 62/64/16 64/61/16 61/63/16
o Plane_16
v -0.940892 0.000000 0.434097
v -0.986304 0.000000 0.475467
v -0.816782 0.000000 0.570335
v -0.862195 0.000000 0.611704
vn -0.0000 1.0000 -0.0000
vt 0.220945 0.593018
vt 0.158932 0.593018
vt 0.158932 0.406982
vt 0.220945 0.406982
s 1
f 68/65/17 67/66/17 65/67/17
f 66/68/17 68/65/17 65/67/17
o Plane_17
v 1.541567 -0.000001 0.294639
v 1.599105 -0.000001 0.316159
v 1.606128 -0.000001 0.122025
v 1.663666 -0.000001 0.143545
vn -0.0000 1.0000 -0.0000
vt 0.296920 0.593018
vt 0.234908 0.593018
vt 0.234908 0.406982
vt 0.296920 0.406982
s 1
f 72/69/18 71/70/18 69/71/18
f 70/72/18 72/69/18 69/71/18
o Plane_18
v 1.222789 -0.000000 0.098364
v 1.264825 -0.000000 0.143160
v 1.357178 -0.000000 -0.027744
v 1.399215 -0.000000 0.017052
vn -0.0000 1.0000 -0.0000
vt 0.372895 0.593018
vt 0.310883 0.593018
vt 0.310883 0.406982
vt 0.372895 0.406982
s 1
f 76/73/19 75/74/19 73/75/19
f 74/76/19 76/73/19 73/75/19
o Plane_19
v 0.073801 0.000000 0.692239
v 0.115578 0.000000 0.647201
v -0.061313 0.000000 0.566908
v -0.019536 0.000000 0.521870
vn -0.0000 1.0000 -0.0000
vt 0.448871 0.593018
vt 0.386859 0.593018
vt 0.386859 0.406982
vt 0.448871 0.406982
s 1
f 80/77/20 79/78/20 77/79/20
f 78/80/20 80/77/20 77/79/20
o Plane_20
v 1.221884 -0.000000 0.977722
v 1.160473 -0.000000 0.976172
v 1.217232 -0.000000 1.161956
v 1.155820 -0.000000 1.160406
vn -0.0000 1.0000 -0.0000
vt 0.524846 0.593018
vt 0.462834 0.593018
vt 0.462834 0.406982
vt 0.524846 0.406982
s 1
f 84/81/21 83/82/21 81/83/21
f 82/84/21 84/81/21 81/83/21
o Plane_21
v 1.627087 -0.000000 -0.059013
v 1.608896 -0.000000 -0.117689
v 1.451059 -0.000000 -0.004442
v 1.432868 -0.000000 -0.063118
vn -0.0000 1.0000 -0.0000
vt 0.600822 0.193018
vt 0.538809 0.193018
vt 0.538809 0.006982
vt 0.600822 0.006982
s 1
f 88/85/22 87/86/22 85/87/22
f 86/88/22 88/85/22 85/87/22
o Plane_22
v 1.407125 -0.000000 0.204099
v 1.439172 -0.000000 0.256508
v 1.564352 -0.000000 0.107956
v 1.596399 -0.000000 0.160365
vn -0.0000 1.0000 -0.0000
vt 0.600822 0.393018
vt 0.538809 0.393018
vt 0.538809 0.206982
vt 0.600822 0.206982
s 1
f 92/89/23 91/90/23 89/91/23
f 90/92/23 92/89/23 89/91/23
o Plane_23
v -1.273825 -0.000000 -0.465654
v -1.217943 -0.000000 -0.440141
v -1.197285 -0.000000 -0.633301
v -1.141403 -0.000000 -0.607787
vn -0.0000 1.0000 -0.0000
vt 0.600822 0.593018
vt 0.538809 0.593018
vt 0.538809 0.406982
vt 0.600822 0.406982
s 1
f 96/93/24 95/94/24 93/95/24
f 94/96/24 96/93/24 93/95/24
o Plane_24
v 1.462266 -0.000000 1.588225
v 1.401037 -0.000000 1.583245
v 1.447325 -0.000000 1.771911
v 1.386096 -0.000000 1.766931
vn -0.0000 1.0000 -0.0000
vt 0.676797 0.193018
vt 0.614785 0.193018
vt 0.614785 0.006982
vt 0.676797 0.006982
s 1
f 100/97/25 99/98/25 97/99/25
f 98/100/25 100/97/25 97/99/25
o Plane_25
v -0.601780 0.000000 0.160461
v -0.540365 0.000000 0.159059
v -0.605988 -0.000000 -0.023783
v -0.544573 -0.000000 -0.025186
vn -0.0000 1.0000 -0.0000
vt 0.676797 0.393018
vt 0.614785 0.393018
vt 0.614785 0.206982
vt 0.676797 0.206982
s 1
f 104/101/26 103/102/26 101/103/26
f 102/104/26 104/101/26 101/103/26
o Plane_26
v 1.090613 -0.000000 1.427786
v 1.116498 -0.000000 1.483497
v 1.257746 -0.000000 1.350131
v 1.283631 -0.000000 1.405842
vn -0.0000 1.0000 -0.0000
vt 0.676797 0.593018
vt 0.614785 0.593018
vt 0.614785 0.406982
vt 0.676797 0.406982
s 1
f 108/105/27 107/106/27 105/107/27
f 106/108/27 108/105/27 105/107/27
o Plane_27
v -1.063004 0.000000 0.117444
v -1.008948 0.000000 0.146628
v -0.975451 -0.000000 -0.044723
v -0.921395 -0.000000 -0.015539
vn -0.0000 1.0000 -0.0000
vt 0.752772 0.193018
vt 0.690760 0.193018
vt 0.690760 0.006982
vt 0.752772 0.006982
s 1
f 112/109/28 111/110/28 109/111/28
f 110/112/28 112/109/28 109/111/28
o Plane_28
v 2.233543 -0.000000 -0.917950
v 2.285067 -0.000000 -0.884498
v 2.333899 -0.000000 -1.072521
v 2.385423 -0.000000 -1.039069
vn -0.0000 1.0000 -0.0000
vt 0.752772 0.393018
vt 0.690760 0.393018
vt 0.690760 0.206982
vt 0.752772 0.206982
s 1
f 116/113/29 115/114/29 113/115/29
f 114/116/29 116/113/29 113/115/29
o Plane_29
v 1.551528 -0.000000 0.349692
v 1.495026 -0.000000 0.373803
v 1.623862 -0.000000 0.519195
v 1.567361 -0.000000 0.543307
vn -0.0000 1.0000 -0.0000
vt 0.752772 0.593018
vt 0.690760 0.593018
vt 0.690760 0.406982
vt 0.752772 0.406982
s 1
f 120/117/30 119/118/30 117/119/30
f 118/120/30 120/117/30 117/119/30
o Plane_30
v 1.766123 -0.000000 -0.459437
v 1.820299 -0.000000 -0.430475
v 1.853007 -0.000000 -0.621963
v 1.907183 -0.000000 -0.593002
vn -0.0000 1.0000 -0.0000
vt 0.068994 0.793018
vt 0.006982 0.793018
vt 0.006982 0.606982
vt 0.068994 0.606982
s 1
f 124/121/31 123/122/31 121/123/31
f 122/124/31 124/121/31 121/123/31
o Plane_31
v -1.886148 -0.000000 -0.711989
v -1.825316 -0.000000 -0.703437
v -1.860494 -0.000000 -0.894487
v -1.799662 -0.000000 -0.885936
vn -0.0000 1.0000 -0.0000
vt 0.144969 0.793018
vt 0.082957 0.793018
vt 0.082957 0.606982
vt 0.144969 0.606982
s 1
f 128/125/32 127/126/32 125/127/32
f 126/128/32 128/125/32 125/127/32
o Plane_32
v 1.731150 -0.000000 -1.578155
v 1.707539 -0.000000 -1.521443
v 1.901286 -0.000000 -1.507322
v 1.877675 -0.000000 -1.450610
vn -0.0000 1.0000 -0.0000
vt 0.220945 0.793018
vt 0.158932 0.793018
vt 0.158932 0.606982
vt 0.220945 0.606982
s 1
f 132/129/33 131/130/33 129/131/33
f 130/132/33 132/129/33 129/131/33
o Plane_33
v 0.641822 -0.000000 1.337609
v 0.695668 -0.000000 1.308039
v 0.553114 -0.000000 1.176070
v 0.606960 -0.000000 1.146501
vn -0.0000 1.0000 -0.0000
vt 0.296920 0.793018
vt 0.234908 0.793018
vt 0.234908 0.606982
vt 0.296920 0.606982
s 1
f 136/133/34 135/134/34 133/135/34
f 134/136/34 136/133/34 133/135/34
o Plane_34
v 2.112903 -0.000001 1.135128
v 2.168957 -0.000001 1.160262
v 2.188304 -0.000001 0.966966
v 2.244359 -0.000001 0.992100
vn -0.0000 1.0000 -0.0000
vt 0.372895 0.793018
vt 0.310883 0.793018
vt 0.310883 0.606982
vt 0.372895 0.606982
s 1
f 140/137/35 139/138/35 137/139/35
f 138/140/35 140/137/35 137/139/35
o Plane_35
v 0.043475 -0.000000 -0.678714
v 0.076902 -0.000000 -0.730254
v -0.111144 -0.000000 -0.778997
v -0.077716 -0.000000 -0.830537
vn -0.0000 1.0000 -0.0000
vt 0.448871 0.793018
vt 0.386859 0.793018
vt 0.386859 0.606982
vt 0.448871 0.606982
s 1
f 144/141/36 143/142/36 141/143/36
f 142/144/36 144/141/36 141/143/36
o Plane_36
v 0.112453 -0.000000 -0.551938
v 0.171643 -0.000000 -0.568380
v 0.063126 -0.000000 -0.729506
v 0.122315 -0.000000 -0.745949
vn -0.0000 1.0000 -0.0000
vt 0.524846 0.793018
vt 0.462834 0.793018
vt 0.462834 0.606982
vt 0.524846 0.606982
s 1
f 148/145/37 147/146/37 145/147/37
f 146/148/37 148/145/37 145/147/37
o Plane_37
v 1.504252 -0.000000 1.379063
v 1.565487 -0.000000 1.383963
v 1.518952 -0.000000 1.195358
v 1.580187 -0.000000 1.200258
vn -0.0000 1.0000 -0.0000
vt 0.600822 0.793018
vt 0.538809 0.793018
vt 0.538809 0.606982
vt 0.600822 0.606982
s 1
f 152/149/38 151/150/38 149/151/38
f 150/152/38 152/149/38 149/151/38
o Plane_38
v 0.255793 -0.000000 1.031627
v 0.279628 -0.000000 1.088245
v 0.425648 -0.000000 0.960122
v 0.449483 -0.000000 1.016740
vn -0.0000 1.0000 -0.0000
vt 0.676797 0.793018
vt 0.614785 0.793018
vt 0.614785 0.606982
vt 0.676797 0.606982
s 1
f 156/153/39 155/154/39 153/155/39
f 154/156/39 156/153/39 153/155/39
o Plane_39
v -1.453810 -0.000000 0.528871
v -1.393420 -0.000000 0.540131
v -1.420030 -0.000000 0.347701
v -1.359640 -0.000000 0.358961
vn -0.0000 1.0000 -0.0000
vt 0.752772 0.793018
vt 0.690760 0.793018
vt 0.690760 0.606982
vt 0.752772 0.606982
s 1
f 160/157/40 159/158/40 157/159/40
f 158/160/40 160/157/40 157/159/40
o Plane_40
v 0.159514 -0.000000 -1.707797
v 0.118378 -0.000000 -1.753422
v 0.022640 -0.000000 -1.584390
v -0.018496 -0.000000 -1.630014
vn -0.0000 1.0000 -0.0000
vt 0.828748 0.193018
vt 0.766735 0.193018
vt 0.766735 0.006982
vt 0.828748 0.006982
s 1
f 164/161/41 163/162/41 161/163/41
f 162/164/41 164/161/41 161/163/41
o Plane_41
v 1.996357 -0.000000 0.824287
v 1.981637 -0.000000 0.883929
v 2.175281 -0.000000 0.868446
v 2.160561 -0.000000 0.928088
vn -0.0000 1.0000 -0.0000
vt 0.828748 0.393018
vt 0.766735 0.393018
vt 0.766735 0.206982
vt 0.828748 0.206982
s 1
f 168/165/42 167/166/42 165/167/42
f 166/168/42 168/165/42 165/167/42
o Plane_42
v 0.868179 -0.000000 -1.325928
v 0.929535 -0.000000 -1.322899
v 0.877265 -0.000000 -1.509997
v 0.938621 -0.000000 -1.506968
vn -0.0000 1.0000 -0.0000
vt 0.828748 0.593018
vt 0.766735 0.593018
vt 0.766735 0.406982
vt 0.828748 0.406982
s 1
f 172/169/43 171/170/43 169/171/43
f 170/172/43 172/169/43 169/171/43
o Plane_43
v -0.002224 -0.000000 0.648240
v -0.061787 -0.000000 0.663275
v 0.042881 -0.000000 0.826927
v -0.016681 -0.000000 0.841963
vn -0.0000 1.0000 -0.0000
vt 0.828748 0.793018
vt 0.766735 0.793018
vt 0.766735 0.606982
vt 0.828748 0.606982
s 1
f 176/173/44 175/174/44 173/175/44
f 174/176/44 176/173/44 173/175/44
o Plane_44
v 0.591659 -0.000000 -0.450379
v 0.621190 -0.000000 -0.396511
v 0.753260 -0.000000 -0.538972
v 0.782791 -0.000000 -0.485105
vn -0.0000 1.0000 -0.0000
vt 0.904723 0.193018
vt 0.842711 0.193018
vt 0.842711 0.006982
vt 0.904723 0.006982
s 1
f 180/177/45 179/178/45 177/179/45
f 178/180/45 180/177/45 177/179/45
o Plane_45
v 0.269475 -0.000000 0.299236
v 0.330799 -0.000000 0.302854
v 0.280330 -0.000000 0.115263
v 0.341654 -0.000000 0.118882
vn -0.0000 1.0000 -0.0000
vt 0.904723 0.393018
vt 0.842711 0.393018
vt 0.842711 0.206982
vt 0.904723 0.206982
s 1
f 184/181/46 183/182/46 181/183/46
f 182/184/46 184/181/46 181/183/46
o Plane_46
v 1.068617 -0.000000 -0.176487
v 1.115084 -0.000000 -0.216669
v 0.948073 -0.000000 -0.315890
v 0.994540 -0.000000 -0.356071
vn -0.0000 1.0000 -0.0000
vt 0.904723 0.593018
vt 0.842711 0.593018
vt 0.842711 0.406982
vt 0.904723 0.406982
s 1
f 188/185/47 187/186/47 185/187/47
f 186/188/47 188/185/47 185/187/47
o Plane_47
v 0.615993 -0.000000 -0.942804
v 0.677260 -0.000000 -0.947292
v 0.602530 -0.000000 -1.126605
v 0.663797 -0.000000 -1.131092
vn -0.0000 1.0000 -0.0000
vt 0.904723 0.793018
vt 0.842711 0.793018
vt 0.842711 0.606982
vt 0.904723 0.606982
s 1
f 192/189/48 191/190/48 189/191/48
f 190/192/48 192/189/48 189/191/48
o Plane_48
v -0.663442 -0.000000 -0.368726
v -0.627000 -0.000000 -0.319272
v -0.515080 -0.000000 -0.478053
v -0.478638 -0.000000 -0.428599
vn -0.0000 1.0000 -0.0000
vt 0.980699 0.193018
vt 0.918686 0.193018
vt 0.918686 0.006982
vt 0.980699 0.006982
s 1
f 196/193/49 195/194/49 193/195/49
f 194/196/49 196/193/49 193/195/49
o Plane_49
v 1.258087 -0.000000 -0.197003
v 1.211347 -0.000000 -0.236866
v 1.138497 -0.000000 -0.056782
v 1.091757 -0.000000 -0.096645
vn -0.0000 1.0000 -0.0000
vt 0.980699 0.393018
vt 0.918686 0.393018
vt 0.918686 0.206982
vt 0.980699 0.206982
s 1
f 200/197/50 199/198/50 197/199/50
f 198/200/50 200/197/50 197/199/50
o Plane_50
v 0.621244 -0.000000 -0.130298
v 0.587848 -0.000000 -0.078738
v 0.775924 -0.000000 -0.030110
v 0.742528 -0.000000 0.021451
vn -0.0000 1.0000 -0.0000
vt 0.980699 0.593018
vt 0.918686 0.593018
vt 0.918686 0.406982
vt 0.980699 0.406982
s 1
f 204/201/51 203/202/51 201/203/51
f 202/204/51 204/201/51 201/203/51
o Plane_51
v -0.642715 -0.000000 1.151739
v -0.704144 -0.000000 1.152191
v -0.641358 -0.000000 1.336027
v -0.702787 -0.000000 1.336479
vn -0.0000 1.0000 -0.0000
vt 0.980699 0.793018
vt 0.918686 0.793018
vt 0.918686 0.606982
vt 0.980699 0.606982
s 1
f 208/205/52 207/206/52 205/207/52
f 206/208/52 208/205/52 205/207/52
o Plane_52
v 1.547075 -0.000000 0.922240
v 1.600428 -0.000000 0.952688
v 1.638420 -0.000000 0.762178
v 1.691774 -0.000000 0.792626
vn -0.0000 1.0000 -0.0000
vt 0.068994 0.993019
vt 0.006982 0.993019
vt 0.006982 0.806982
vt 0.068994 0.806982
s 1
f 212/209/53 211/210/53 209/211/53
f 210/212/53 212/209/53 209/211/53
o Plane_53
v 0.172157 -0.000000 -0.068132
v 0.197350 -0.000000 -0.124159
v 0.004074 -0.000000 -0.143709
v 0.029267 -0.000000 -0.199736
vn -0.0000 1.0000 -0.0000
vt 0.144969 0.993019
vt 0.082957 0.993019
vt 0.082957 0.806982
vt 0.144969 0.806982
s 1
f 216/213/54 215/214/54 213/215/54
f 214/216/54 216/213/54 213/215/54
o Plane_54
v 1.198651 -0.000000 2.034877
v 1.259198 -0.000000 2.045257
v 1.229791 -0.000000 1.853234
v 1.290339 -0.000000 1.863614
vn -0.0000 1.0000 -0.0000
vt 0.220945 0.993019
vt 0.158932 0.993019
vt 0.158932 0.806982
vt 0.220945 0.806982
s 1
f 220/217/55 219/218/55 217/219/55
f 218/220/55 220/217/55 217/219/55
o Plane_55
v 0.351891 -0.000000 0.533976
v 0.290943 -0.000000 0.526287
v 0.328823 -0.000000 0.716820
v 0.267875 -0.000000 0.709130
vn -0.0000 1.0000 -0.0000
vt 0.296920 0.993019
vt 0.234908 0.993019
vt 0.234908 0.806982
vt 0.296920 0.806982
s 1
f 224/221/56 223/222/56 221/223/56
f 222/224/56 224/221/56 221/223/56
o Plane_56
v 1.311799 -0.000000 -0.398433
v 1.343438 -0.000000 -0.345777
v 1.469769 -0.000000 -0.493351
v 1.501408 -0.000000 -0.440695
vn -0.0000 1.0000 -0.0000
vt 0.372895 0.993019
vt 0.310883 0.993019
vt 0.310883 0.806982
vt 0.372895 0.806982
s 1
f 228/225/57 227/226/57 225/227/57
f 226/228/57 228/225/57 225/227/57
o Plane_57
v 1.438817 -0.000000 -0.995809
v 1.453193 -0.000000 -1.055534
v 1.259642 -0.000000 -1.038936
v 1.274018 -0.000000 -1.098661
vn -0.0000 1.0000 -0.0000
vt 0.448871 0.993019
vt 0.386859 0.993019
vt 0.386859 0.806982
vt 0.448871 0.806982
s 1
f 232/229/58 231/230/58 229/231/58
f 230/232/58 232/229/58 229/231/58
o Plane_58
v -0.495808 -0.000000 -0.669367
v -0.437281 -0.000000 -0.688030
v -0.551799 -0.000000 -0.844948
v -0.493272 -0.000000 -0.863612
vn -0.0000 1.0000 -0.0000
vt 0.524846 0.993019
vt 0.462834 0.993019
vt 0.462834 0.806982
vt 0.524846 0.806982
s 1
f 236/233/59 235/234/59 233/235/59
f 234/236/59 236/233/59 233/235/59
o Plane_59
v 1.804951 -0.000000 1.079589
v 1.864148 -0.000000 1.096007
v 1.854205 -0.000000 0.902000
v 1.913402 -0.000000 0.918418
vn -0.0000 1.0000 -0.0000
vt 0.600822 0.993019
vt 0.538809 0.993019
vt 0.538809 0.806982
vt 0.600822 0.806982
s 1
f 240/237/60 239/238/60 237/239/60
f 238/240/60 240/237/60 237/239/60
o Plane_60
v -0.012622 -0.000000 -1.192227
v 0.042379 -0.000000 -1.164866
v 0.069460 -0.000000 -1.357230
v 0.124462 -0.000000 -1.329870
vn -0.0000 1.0000 -0.0000
vt 0.676797 0.993019
vt 0.614785 0.993019
vt 0.614785 0.806982
vt 0.676797 0.806982
s 1
f 244/241/61 243/242/61 241/243/61
f 242/244/61 244/241/61 241/243/61
o Plane_61
v 0.597750 -0.000000 -1.283711
v 0.639718 -0.000000 -1.328572
v 0.463170 -0.000000 -1.409616
v 0.505138 -0.000000 -1.454476
vn -0.0000 1.0000 -0.0000
vt 0.752772 0.993019
vt 0.690760 0.993019
vt 0.690760 0.806982
vt 0.752772 0.806982
s 1
f 248/245/62 247/246/62 245/247/62
f 246/248/62 248/245/62 245/247/62
o Plane_62
v 0.517776 -0.000000 0.509884
v 0.570388 -0.000000 0.478171
v 0.422636 -0.000000 0.352048
v 0.475248 -0.000000 0.320335
vn -0.0000 1.0000 -0.0000
vt 0.828748 0.993019
vt 0.766735 0.993019
vt 0.766735 0.806982
vt 0.828748 0.806982
s 1
f 252/249/63 251/250/63 249/251/63
f 250/252/63 252/249/63 249/251/63
o Plane_63
v -0.543891 -0.000000 -1.595052
v -0.484771 -0.000000 -1.611741
v -0.593960 -0.000000 -1.772413
v -0.534840 -0.000000 -1.789102
vn -0.0000 1.0000 -0.0000
vt 0.904723 0.993019
vt 0.842711 0.993019
vt 0.842711 0.806982
vt 0.904723 0.806982
s 1
f 256/253/64 255/254/64 253/255/64
f 254/256/64 256/253/64 253/255/64
o Plane_64
v 0.995530 -0.000000 0.995891
v 1.013748 -0.000000 0.937223
v 0.819528 -0.000000 0.941239
v 0.837745 -0.000000 0.882571
vn -0.0000 1.0000 -0.0000
vt 0.068994 0.193018
vt 0.006982 0.193018
vt 0.006982 0.006982
vt 0.068994 0.006982
s 1
f 260/257/65 259/258/65 257/259/65
f 258/260/65 260/257/65 257/259/65
o Plane_65
v 0.812134 -0.000000 1.516888
v 0.873132 -0.000000 1.509611
v 0.790302 -0.000000 1.333893
v 0.851301 -0.000000 1.326616
vn -0.0000 1.0000 -0.0000
vt 0.980699 0.993019
vt 0.918686 0.993019
vt 0.918686 0.806982
vt 0.980699 0.806982
s 1
f 264/261/66 263/262/66 261/263/66
f 262/264/66 264/261/66 261/263/66
