# Blender 4.0.2
# www.blender.org
o Plane.001
v 5.000000 4.000000 -5.000000
v -5.000000 4.000000 -4.999999
v 5.000000 0.000000 -4.999999
v -5.000000 0.000000 -4.999998
vn -0.0000 -0.0000 1.0000
vt 1.189667 -0.189667
vt -0.189667 1.189667
vt -0.189667 -0.189667
vt 1.189667 1.189667
s 0
f 2/1/1 3/2/1 1/3/1
f 2/1/1 4/4/1 3/2/1
o Plane.002
v 5.000000 4.000000 5.000000
v 4.999999 4.000000 -5.000000
v 5.000000 0.000000 5.000000
v 4.999998 0.000000 -5.000000
vn -1.0000 -0.0000 -0.0000
vt 1.189667 -0.189667
vt -0.189667 1.189667
vt -0.189667 -0.189667
vt 1.189667 1.189667
s 0
f 6/5/2 7/6/2 5/7/2
f 6/5/2 8/8/2 7/6/2
o Plane.003
v -5.000000 4.000000 -5.000000
v -4.999999 4.000000 5.000000
v -4.999999 0.000000 -5.000000
v -4.999998 0.000000 5.000000
vn 1.0000 -0.0000 -0.0000
vt 1.189667 -0.189667
vt -0.189667 1.189667
vt -0.189667 -0.189667
vt 1.189667 1.189667
s 0
f 10/9/3 11/10/3 9/11/3
f 10/9/3 12/12/3 11/10/3
o Plane.004
v -4.999999 4.000000 5.000001
v 5.000001 4.000000 4.999998
v -4.999999 0.000000 5.000000
v 5.000001 0.000000 4.999997
vn -0.0000 -0.0000 -1.0000
vt 1.189667 -0.189667
vt -0.189667 1.189667
vt -0.189667 -0.189667
vt 1.189667 1.189667
s 0
f 14/13/4 15/14/4 13/15/4
f 14/13/4 16/16/4 15/14/4
